<svg width="16" height="16" viewBox="0 0 16 16" fill="none" xmlns="http://www.w3.org/2000/svg">
<path d="M14.7812 13.6289L11.1172 9.96484C11.9102 9.00781 12.3477 7.77734 12.3477 6.4375C12.3477 3.32031 9.77734 0.75 6.66016 0.75C3.51562 0.75 1 3.32031 1 6.4375C1 9.58203 3.54297 12.125 6.66016 12.125C7.97266 12.125 9.20312 11.6875 10.1875 10.8945L13.8516 14.5586C13.9883 14.6953 14.1523 14.75 14.3438 14.75C14.5078 14.75 14.6719 14.6953 14.7812 14.5586C15.0547 14.3125 15.0547 13.9023 14.7812 13.6289ZM2.3125 6.4375C2.3125 4.03125 4.25391 2.0625 6.6875 2.0625C9.09375 2.0625 11.0625 4.03125 11.0625 6.4375C11.0625 8.87109 9.09375 10.8125 6.6875 10.8125C4.25391 10.8125 2.3125 8.87109 2.3125 6.4375Z" fill="black" fill-opacity="0.5"/>
</svg>
