<svg width="62" height="64" viewBox="0 0 62 64" fill="none" xmlns="http://www.w3.org/2000/svg">
<path d="M20.625 49.75C20.625 50 20.375 50.125 20 50.125C19.625 50.25 19.375 50 19.375 49.75C19.375 49.5 19.625 49.25 20 49.25C20.375 49.25 20.625 49.5 20.625 49.75ZM16.75 49.125C16.75 49.375 17 49.75 17.375 49.75C17.625 49.875 18 49.75 18.125 49.5C18.125 49.25 18 49 17.625 48.875C17.25 48.75 16.875 48.875 16.75 49.125ZM22.375 49C22 49 21.75 49.25 21.75 49.625C21.75 49.875 22.125 50 22.5 49.875C22.875 49.75 23.125 49.625 23 49.375C23 49.125 22.625 48.875 22.375 49ZM30.5 1C13.25 1 0 14.25 0 31.5C0 45.375 8.625 57.25 21.125 61.5C22.75 61.75 23.25 60.75 23.25 60C23.25 59.125 23.25 54.875 23.25 52.25C23.25 52.25 14.5 54.125 12.625 48.5C12.625 48.5 11.25 44.875 9.25 44C9.25 44 6.375 42 9.375 42C9.375 42 12.5 42.25 14.25 45.25C17 50.125 21.5 48.75 23.375 47.875C23.625 45.875 24.375 44.5 25.375 43.625C18.375 42.875 11.25 41.875 11.25 29.875C11.25 26.375 12.25 24.75 14.25 22.5C13.875 21.625 12.875 18.375 14.625 14C17.125 13.25 23.25 17.375 23.25 17.375C25.75 16.625 28.375 16.375 31 16.375C33.75 16.375 36.375 16.625 38.875 17.375C38.875 17.375 44.875 13.125 47.5 14C49.25 18.375 48.125 21.625 47.875 22.5C49.875 24.75 51.125 26.375 51.125 29.875C51.125 41.875 43.75 42.875 36.75 43.625C37.875 44.625 38.875 46.5 38.875 49.5C38.875 53.625 38.75 58.875 38.75 59.875C38.75 60.75 39.375 61.75 41 61.375C53.5 57.25 62 45.375 62 31.5C62 14.25 47.875 1 30.5 1ZM12.125 44.125C11.875 44.25 12 44.625 12.125 44.875C12.375 45 12.625 45.125 12.875 45C13 44.875 13 44.5 12.75 44.25C12.5 44.125 12.25 44 12.125 44.125ZM10.75 43.125C10.625 43.375 10.75 43.5 11 43.625C11.25 43.75 11.5 43.75 11.625 43.5C11.625 43.375 11.5 43.25 11.25 43.125C11 43 10.875 43 10.75 43.125ZM14.75 47.625C14.625 47.75 14.625 48.125 15 48.375C15.25 48.625 15.625 48.75 15.75 48.5C15.875 48.375 15.875 48 15.625 47.75C15.375 47.5 15 47.375 14.75 47.625ZM13.375 45.75C13.125 45.875 13.125 46.25 13.375 46.5C13.625 46.75 13.875 46.875 14.125 46.75C14.25 46.625 14.25 46.25 14.125 46C13.875 45.75 13.625 45.625 13.375 45.75Z" fill="#4834D4"/>
<path d="M32.9359 43.6572V37.1341C34.8157 36.7808 36.6113 35.8023 37.9299 34.1444C40.1463 31.2905 40.1183 27.2408 37.9018 24.4413C34.5631 20.2828 28.1102 20.2828 24.7715 24.4413C22.5551 27.2408 22.527 31.2905 24.7435 34.1444C26.0621 35.8023 27.8577 36.7808 29.7655 37.1613L29.7375 43.6572C29.7655 44.4998 30.4669 45.1793 31.3367 45.2064C32.2064 45.1793 32.9078 44.4998 32.9359 43.6572ZM27.7455 25.8003C29.7094 23.8977 32.9359 23.8705 34.9279 25.8003C36.8918 27.7028 36.8918 30.8557 34.9279 32.7582C32.9359 34.688 29.7094 34.6608 27.7455 32.7582C25.7535 30.8285 25.7535 27.73 27.7455 25.8003Z" fill="#686DE0"/>
</svg>
