<svg width="322" height="160" viewBox="0 0 322 160" fill="none" xmlns="http://www.w3.org/2000/svg">
<path d="M51.5625 124.375C51.5625 125 50.9375 125.312 50 125.312C49.0625 125.625 48.4375 125 48.4375 124.375C48.4375 123.75 49.0625 123.125 50 123.125C50.9375 123.125 51.5625 123.75 51.5625 124.375ZM41.875 122.812C41.875 123.438 42.5 124.375 43.4375 124.375C44.0625 124.688 45 124.375 45.3125 123.75C45.3125 123.125 45 122.5 44.0625 122.188C43.125 121.875 42.1875 122.188 41.875 122.812ZM55.9375 122.5C55 122.5 54.375 123.125 54.375 124.062C54.375 124.688 55.3125 125 56.25 124.688C57.1875 124.375 57.8125 124.062 57.5 123.438C57.5 122.812 56.5625 122.188 55.9375 122.5ZM76.25 2.5C33.125 2.5 0 35.625 0 78.75C0 113.438 21.5625 143.125 52.8125 153.75C56.875 154.375 58.125 151.875 58.125 150C58.125 147.812 58.125 137.188 58.125 130.625C58.125 130.625 36.25 135.312 31.5625 121.25C31.5625 121.25 28.125 112.188 23.125 110C23.125 110 15.9375 105 23.4375 105C23.4375 105 31.25 105.625 35.625 113.125C42.5 125.312 53.75 121.875 58.4375 119.688C59.0625 114.688 60.9375 111.25 63.4375 109.062C45.9375 107.188 28.125 104.688 28.125 74.6875C28.125 65.9375 30.625 61.875 35.625 56.25C34.6875 54.0625 32.1875 45.9375 36.5625 35C42.8125 33.125 58.125 43.4375 58.125 43.4375C64.375 41.5625 70.9375 40.9375 77.5 40.9375C84.375 40.9375 90.9375 41.5625 97.1875 43.4375C97.1875 43.4375 112.188 32.8125 118.75 35C123.125 45.9375 120.312 54.0625 119.688 56.25C124.688 61.875 127.812 65.9375 127.812 74.6875C127.812 104.688 109.375 107.188 91.875 109.062C94.6875 111.562 97.1875 116.25 97.1875 123.75C97.1875 134.062 96.875 147.188 96.875 149.688C96.875 151.875 98.4375 154.375 102.5 153.438C133.75 143.125 155 113.438 155 78.75C155 35.625 119.688 2.5 76.25 2.5ZM30.3125 110.312C29.6875 110.625 30 111.562 30.3125 112.188C30.9375 112.5 31.5625 112.812 32.1875 112.5C32.5 112.188 32.5 111.25 31.875 110.625C31.25 110.312 30.625 110 30.3125 110.312ZM26.875 107.812C26.5625 108.438 26.875 108.75 27.5 109.062C28.125 109.375 28.75 109.375 29.0625 108.75C29.0625 108.438 28.75 108.125 28.125 107.812C27.5 107.5 27.1875 107.5 26.875 107.812ZM36.875 119.062C36.5625 119.375 36.5625 120.312 37.5 120.938C38.125 121.562 39.0625 121.875 39.375 121.25C39.6875 120.938 39.6875 120 39.0625 119.375C38.4375 118.75 37.5 118.438 36.875 119.062ZM33.4375 114.375C32.8125 114.688 32.8125 115.625 33.4375 116.25C34.0625 116.875 34.6875 117.188 35.3125 116.875C35.625 116.562 35.625 115.625 35.3125 115C34.6875 114.375 34.0625 114.062 33.4375 114.375Z" fill="#4834D4"/>
<path d="M80.6423 108.767V95.7209C84.4018 95.0142 87.993 93.0573 90.6303 89.7414C95.0632 84.0337 95.0071 75.9342 90.5742 70.3352C83.8968 62.0183 70.9909 62.0183 64.3136 70.3352C59.8807 75.9342 59.8246 84.0337 64.2574 89.7414C66.8947 93.0573 70.4859 95.0142 74.3016 95.7752L74.2455 108.767C74.3016 110.452 75.7044 111.811 77.4439 111.866C79.1834 111.811 80.5862 110.452 80.6423 108.767ZM70.2615 73.0532C74.1894 69.2481 80.6423 69.1937 84.6263 73.0532C88.5542 76.8583 88.5542 83.164 84.6263 86.9691C80.6423 90.8286 74.1894 90.7742 70.2615 86.9691C66.2775 83.1096 66.2775 76.9127 70.2615 73.0532Z" fill="#686DE0"/>
<path d="M188.886 67.898C189.737 67.898 190.514 67.8613 191.218 67.788C191.937 67.7 192.611 67.5753 193.242 67.414C193.873 67.2527 194.467 67.062 195.024 66.842C195.581 66.6073 196.139 66.3433 196.696 66.05V59.098H191.812C191.533 59.098 191.306 59.0173 191.13 58.856C190.969 58.6947 190.888 58.4967 190.888 58.262V55.842H200.568V67.942C199.776 68.514 198.947 69.0127 198.082 69.438C197.231 69.8633 196.315 70.2227 195.332 70.516C194.364 70.7947 193.323 71 192.208 71.132C191.093 71.2787 189.883 71.352 188.578 71.352C186.29 71.352 184.193 70.9633 182.286 70.186C180.379 69.394 178.737 68.294 177.358 66.886C175.979 65.4633 174.901 63.762 174.124 61.782C173.361 59.802 172.98 57.624 172.98 55.248C172.98 52.8427 173.354 50.65 174.102 48.67C174.865 46.69 175.943 44.996 177.336 43.588C178.744 42.1653 180.438 41.0653 182.418 40.288C184.413 39.5107 186.642 39.122 189.106 39.122C190.353 39.122 191.511 39.2173 192.582 39.408C193.653 39.584 194.643 39.848 195.552 40.2C196.476 40.5373 197.327 40.9553 198.104 41.454C198.881 41.938 199.607 42.488 200.282 43.104L199.072 45.04C198.823 45.436 198.5 45.634 198.104 45.634C197.869 45.634 197.613 45.5533 197.334 45.392C196.967 45.1867 196.557 44.9373 196.102 44.644C195.647 44.3507 195.09 44.072 194.43 43.808C193.785 43.5293 193.015 43.2947 192.12 43.104C191.24 42.9133 190.191 42.818 188.974 42.818C187.199 42.818 185.593 43.1113 184.156 43.698C182.719 44.27 181.494 45.0987 180.482 46.184C179.47 47.2547 178.693 48.56 178.15 50.1C177.607 51.6253 177.336 53.3413 177.336 55.248C177.336 57.2427 177.615 59.0247 178.172 60.594C178.744 62.1487 179.543 63.4687 180.57 64.554C181.597 65.6393 182.814 66.468 184.222 67.04C185.63 67.612 187.185 67.898 188.886 67.898ZM210.881 48.714V71H206.965V48.714H210.881ZM211.761 41.718C211.761 42.0993 211.68 42.4587 211.519 42.796C211.372 43.1187 211.167 43.412 210.903 43.676C210.653 43.9253 210.36 44.1233 210.023 44.27C209.685 44.4167 209.326 44.49 208.945 44.49C208.563 44.49 208.204 44.4167 207.867 44.27C207.544 44.1233 207.251 43.9253 206.987 43.676C206.737 43.412 206.539 43.1187 206.393 42.796C206.246 42.4587 206.173 42.0993 206.173 41.718C206.173 41.3367 206.246 40.9773 206.393 40.64C206.539 40.288 206.737 39.9873 206.987 39.738C207.251 39.474 207.544 39.2687 207.867 39.122C208.204 38.9753 208.563 38.902 208.945 38.902C209.326 38.902 209.685 38.9753 210.023 39.122C210.36 39.2687 210.653 39.474 210.903 39.738C211.167 39.9873 211.372 40.288 211.519 40.64C211.68 40.9773 211.761 41.3367 211.761 41.718ZM224.536 71.352C222.776 71.352 221.42 70.8607 220.466 69.878C219.528 68.8953 219.058 67.48 219.058 65.632V51.992H216.374C216.14 51.992 215.942 51.926 215.78 51.794C215.619 51.6473 215.538 51.4273 215.538 51.134V49.572L219.19 49.11L220.092 42.224C220.122 42.004 220.217 41.828 220.378 41.696C220.54 41.5493 220.745 41.476 220.994 41.476H222.974V49.154H229.354V51.992H222.974V65.368C222.974 66.3067 223.202 67.0033 223.656 67.458C224.111 67.9127 224.698 68.14 225.416 68.14C225.827 68.14 226.179 68.0887 226.472 67.986C226.78 67.8687 227.044 67.744 227.264 67.612C227.484 67.48 227.668 67.3627 227.814 67.26C227.976 67.1427 228.115 67.084 228.232 67.084C228.438 67.084 228.621 67.2087 228.782 67.458L229.926 69.328C229.252 69.9587 228.438 70.4573 227.484 70.824C226.531 71.176 225.548 71.352 224.536 71.352ZM260.376 71H256.086V56.656H239.102V71H234.812V39.474H239.102V53.532H256.086V39.474H260.376V71ZM270.842 48.714V62.926C270.842 64.6127 271.231 65.918 272.008 66.842C272.786 67.766 273.959 68.228 275.528 68.228C276.672 68.228 277.75 67.9567 278.762 67.414C279.774 66.8713 280.706 66.116 281.556 65.148V48.714H285.472V71H283.14C282.583 71 282.231 70.7287 282.084 70.186L281.776 67.788C280.808 68.8587 279.723 69.724 278.52 70.384C277.318 71.0293 275.939 71.352 274.384 71.352C273.167 71.352 272.089 71.154 271.15 70.758C270.226 70.3473 269.449 69.7753 268.818 69.042C268.188 68.3087 267.711 67.4213 267.388 66.38C267.08 65.3387 266.926 64.1873 266.926 62.926V48.714H270.842ZM292.035 71V38.594H295.973V51.926C296.897 50.8553 297.953 49.9973 299.141 49.352C300.344 48.692 301.715 48.362 303.255 48.362C304.546 48.362 305.712 48.604 306.753 49.088C307.795 49.572 308.682 50.298 309.415 51.266C310.149 52.2193 310.713 53.4073 311.109 54.83C311.505 56.238 311.703 57.866 311.703 59.714C311.703 61.3567 311.483 62.8893 311.043 64.312C310.603 65.72 309.965 66.9447 309.129 67.986C308.308 69.0127 307.296 69.8267 306.093 70.428C304.905 71.0147 303.563 71.308 302.067 71.308C300.63 71.308 299.405 71.0293 298.393 70.472C297.396 69.9147 296.523 69.1373 295.775 68.14L295.577 70.164C295.46 70.7213 295.123 71 294.565 71H292.035ZM301.979 51.486C300.703 51.486 299.581 51.7793 298.613 52.366C297.66 52.9527 296.78 53.7813 295.973 54.852V65.632C296.677 66.6 297.455 67.282 298.305 67.678C299.171 68.074 300.131 68.272 301.187 68.272C303.27 68.272 304.869 67.5313 305.983 66.05C307.098 64.5687 307.655 62.4567 307.655 59.714C307.655 58.262 307.523 57.0153 307.259 55.974C307.01 54.9327 306.643 54.082 306.159 53.422C305.675 52.7473 305.081 52.256 304.377 51.948C303.673 51.64 302.874 51.486 301.979 51.486ZM190.976 97.402C190.844 97.622 190.705 97.7907 190.558 97.908C190.411 98.0107 190.221 98.062 189.986 98.062C189.737 98.062 189.443 97.9373 189.106 97.688C188.783 97.4387 188.365 97.1673 187.852 96.874C187.353 96.566 186.745 96.2873 186.026 96.038C185.322 95.7887 184.464 95.664 183.452 95.664C182.499 95.664 181.655 95.796 180.922 96.06C180.189 96.3093 179.573 96.654 179.074 97.094C178.59 97.534 178.223 98.0547 177.974 98.656C177.725 99.2427 177.6 99.8807 177.6 100.57C177.6 101.45 177.813 102.183 178.238 102.77C178.678 103.342 179.25 103.833 179.954 104.244C180.673 104.655 181.479 105.014 182.374 105.322C183.283 105.615 184.207 105.923 185.146 106.246C186.099 106.569 187.023 106.935 187.918 107.346C188.827 107.742 189.634 108.248 190.338 108.864C191.057 109.48 191.629 110.235 192.054 111.13C192.494 112.025 192.714 113.125 192.714 114.43C192.714 115.809 192.479 117.107 192.01 118.324C191.541 119.527 190.851 120.575 189.942 121.47C189.047 122.365 187.94 123.069 186.62 123.582C185.315 124.095 183.826 124.352 182.154 124.352C180.115 124.352 178.253 123.985 176.566 123.252C174.894 122.504 173.464 121.499 172.276 120.238L173.508 118.214C173.625 118.053 173.765 117.921 173.926 117.818C174.102 117.701 174.293 117.642 174.498 117.642C174.806 117.642 175.158 117.811 175.554 118.148C175.95 118.471 176.441 118.83 177.028 119.226C177.629 119.622 178.348 119.989 179.184 120.326C180.035 120.649 181.069 120.81 182.286 120.81C183.298 120.81 184.2 120.671 184.992 120.392C185.784 120.113 186.451 119.725 186.994 119.226C187.551 118.713 187.977 118.104 188.27 117.4C188.563 116.696 188.71 115.911 188.71 115.046C188.71 114.093 188.49 113.315 188.05 112.714C187.625 112.098 187.06 111.585 186.356 111.174C185.652 110.763 184.845 110.419 183.936 110.14C183.041 109.847 182.117 109.553 181.164 109.26C180.225 108.952 179.301 108.6 178.392 108.204C177.497 107.808 176.698 107.295 175.994 106.664C175.29 106.033 174.718 105.249 174.278 104.31C173.853 103.357 173.64 102.183 173.64 100.79C173.64 99.6753 173.853 98.5973 174.278 97.556C174.718 96.5147 175.349 95.5907 176.17 94.784C176.991 93.9773 178.003 93.332 179.206 92.848C180.423 92.364 181.817 92.122 183.386 92.122C185.146 92.122 186.752 92.4007 188.204 92.958C189.656 93.5153 190.925 94.322 192.01 95.378L190.976 97.402ZM206.366 101.362C207.701 101.362 208.933 101.589 210.062 102.044C211.191 102.484 212.167 103.129 212.988 103.98C213.809 104.816 214.447 105.857 214.902 107.104C215.371 108.336 215.606 109.744 215.606 111.328C215.606 111.944 215.54 112.355 215.408 112.56C215.276 112.765 215.027 112.868 214.66 112.868H199.832C199.861 114.276 200.052 115.501 200.404 116.542C200.756 117.583 201.24 118.456 201.856 119.16C202.472 119.849 203.205 120.37 204.056 120.722C204.907 121.059 205.86 121.228 206.916 121.228C207.899 121.228 208.742 121.118 209.446 120.898C210.165 120.663 210.781 120.414 211.294 120.15C211.807 119.886 212.233 119.644 212.57 119.424C212.922 119.189 213.223 119.072 213.472 119.072C213.795 119.072 214.044 119.197 214.22 119.446L215.32 120.876C214.836 121.463 214.257 121.976 213.582 122.416C212.907 122.841 212.181 123.193 211.404 123.472C210.641 123.751 209.849 123.956 209.028 124.088C208.207 124.235 207.393 124.308 206.586 124.308C205.046 124.308 203.623 124.051 202.318 123.538C201.027 123.01 199.905 122.247 198.952 121.25C198.013 120.238 197.28 118.991 196.752 117.51C196.224 116.029 195.96 114.327 195.96 112.406C195.96 110.851 196.195 109.399 196.664 108.05C197.148 106.701 197.837 105.535 198.732 104.552C199.627 103.555 200.719 102.777 202.01 102.22C203.301 101.648 204.753 101.362 206.366 101.362ZM206.454 104.244C204.562 104.244 203.073 104.794 201.988 105.894C200.903 106.979 200.228 108.49 199.964 110.426H212.086C212.086 109.517 211.961 108.688 211.712 107.94C211.463 107.177 211.096 106.525 210.612 105.982C210.128 105.425 209.534 104.999 208.83 104.706C208.141 104.398 207.349 104.244 206.454 104.244ZM236.986 124H235.248C234.867 124 234.559 123.941 234.324 123.824C234.09 123.707 233.936 123.457 233.862 123.076L233.422 121.008C232.836 121.536 232.264 122.013 231.706 122.438C231.149 122.849 230.562 123.201 229.946 123.494C229.33 123.773 228.67 123.985 227.966 124.132C227.277 124.279 226.507 124.352 225.656 124.352C224.791 124.352 223.977 124.235 223.214 124C222.466 123.751 221.814 123.384 221.256 122.9C220.699 122.416 220.252 121.807 219.914 121.074C219.592 120.326 219.43 119.446 219.43 118.434C219.43 117.554 219.672 116.711 220.156 115.904C220.64 115.083 221.418 114.357 222.488 113.726C223.574 113.095 224.989 112.582 226.734 112.186C228.48 111.775 230.614 111.541 233.136 111.482V109.744C233.136 108.013 232.762 106.708 232.014 105.828C231.281 104.933 230.188 104.486 228.736 104.486C227.783 104.486 226.976 104.611 226.316 104.86C225.671 105.095 225.106 105.366 224.622 105.674C224.153 105.967 223.742 106.239 223.39 106.488C223.053 106.723 222.716 106.84 222.378 106.84C222.114 106.84 221.88 106.774 221.674 106.642C221.484 106.495 221.33 106.319 221.212 106.114L220.508 104.86C221.74 103.672 223.068 102.785 224.49 102.198C225.913 101.611 227.49 101.318 229.22 101.318C230.467 101.318 231.574 101.523 232.542 101.934C233.51 102.345 234.324 102.917 234.984 103.65C235.644 104.383 236.143 105.271 236.48 106.312C236.818 107.353 236.986 108.497 236.986 109.744V124ZM226.822 121.602C227.512 121.602 228.142 121.536 228.714 121.404C229.286 121.257 229.822 121.059 230.32 120.81C230.834 120.546 231.318 120.231 231.772 119.864C232.242 119.497 232.696 119.079 233.136 118.61V113.968C231.332 114.027 229.8 114.173 228.538 114.408C227.277 114.628 226.25 114.921 225.458 115.288C224.666 115.655 224.087 116.087 223.72 116.586C223.368 117.085 223.192 117.642 223.192 118.258C223.192 118.845 223.288 119.351 223.478 119.776C223.669 120.201 223.926 120.553 224.248 120.832C224.571 121.096 224.952 121.294 225.392 121.426C225.832 121.543 226.309 121.602 226.822 121.602ZM242.919 124V101.714H245.163C245.588 101.714 245.882 101.795 246.043 101.956C246.204 102.117 246.314 102.396 246.373 102.792L246.637 106.268C247.4 104.713 248.338 103.503 249.453 102.638C250.582 101.758 251.902 101.318 253.413 101.318C254.029 101.318 254.586 101.391 255.085 101.538C255.584 101.67 256.046 101.861 256.471 102.11L255.965 105.036C255.862 105.403 255.635 105.586 255.283 105.586C255.078 105.586 254.762 105.52 254.337 105.388C253.912 105.241 253.318 105.168 252.555 105.168C251.191 105.168 250.047 105.564 249.123 106.356C248.214 107.148 247.451 108.299 246.835 109.81V124H242.919ZM275.867 105.674C275.75 105.835 275.632 105.96 275.515 106.048C275.398 106.136 275.229 106.18 275.009 106.18C274.789 106.18 274.547 106.092 274.283 105.916C274.034 105.725 273.711 105.52 273.315 105.3C272.919 105.08 272.435 104.882 271.863 104.706C271.306 104.515 270.616 104.42 269.795 104.42C268.71 104.42 267.749 104.618 266.913 105.014C266.077 105.395 265.373 105.953 264.801 106.686C264.244 107.419 263.818 108.307 263.525 109.348C263.246 110.389 263.107 111.555 263.107 112.846C263.107 114.195 263.261 115.398 263.569 116.454C263.877 117.495 264.31 118.375 264.867 119.094C265.424 119.798 266.099 120.341 266.891 120.722C267.698 121.089 268.6 121.272 269.597 121.272C270.55 121.272 271.335 121.162 271.951 120.942C272.567 120.707 273.08 120.451 273.491 120.172C273.902 119.893 274.239 119.644 274.503 119.424C274.767 119.189 275.031 119.072 275.295 119.072C275.632 119.072 275.882 119.197 276.043 119.446L277.143 120.876C276.175 122.064 274.965 122.937 273.513 123.494C272.061 124.037 270.528 124.308 268.915 124.308C267.522 124.308 266.224 124.051 265.021 123.538C263.833 123.025 262.799 122.284 261.919 121.316C261.039 120.333 260.342 119.131 259.829 117.708C259.33 116.285 259.081 114.665 259.081 112.846C259.081 111.189 259.308 109.656 259.763 108.248C260.232 106.84 260.907 105.63 261.787 104.618C262.682 103.591 263.782 102.792 265.087 102.22C266.392 101.648 267.888 101.362 269.575 101.362C271.13 101.362 272.508 101.619 273.711 102.132C274.914 102.631 275.977 103.342 276.901 104.266L275.867 105.674ZM281.204 124V91.594H285.12V104.706C286.074 103.694 287.13 102.887 288.288 102.286C289.447 101.67 290.782 101.362 292.292 101.362C293.51 101.362 294.58 101.567 295.504 101.978C296.443 102.374 297.22 102.946 297.836 103.694C298.467 104.427 298.944 105.315 299.266 106.356C299.589 107.397 299.75 108.549 299.75 109.81V124H295.834V109.81C295.834 108.123 295.446 106.818 294.668 105.894C293.906 104.955 292.732 104.486 291.148 104.486C289.99 104.486 288.904 104.765 287.892 105.322C286.895 105.879 285.971 106.635 285.12 107.588V124H281.204Z" fill="#4834D4"/>
</svg>
